<?xml version="1.0" encoding="UTF-8" standalone="no"?>
<!-- Generator: Adobe Illustrator 16.0.3, SVG Export Plug-In . SVG Version: 6.00 Build 0)  -->

<svg
   version="1.1"
   id="Layer_1"
   inkscape:version="1.1.1 (3bf5ae0d25, 2021-09-20)"
   sodipodi:docname="ButtonEx-Logo.svg"
   x="0px"
   y="0px"
   width="400"
   height="70"
   viewBox="0 0 400 70"
   enable-background="new 0 0 295.324 108.236"
   xml:space="preserve"
   xmlns:inkscape="http://www.inkscape.org/namespaces/inkscape"
   xmlns:sodipodi="http://sodipodi.sourceforge.net/DTD/sodipodi-0.dtd"
   xmlns="http://www.w3.org/2000/svg"
   xmlns:svg="http://www.w3.org/2000/svg"><defs
   id="defs22"><rect
   x="-0.43784136"
   y="80.343887"
   width="130.47673"
   height="50.132835"
   id="rect6382" /><rect
   x="1.0946034"
   y="5.4730172"
   width="142.51736"
   height="63.924839"
   id="rect1998" />
	
	
</defs><sodipodi:namedview
   id="namedview20"
   pagecolor="#ffffff"
   bordercolor="#999999"
   borderopacity="1"
   inkscape:pageshadow="0"
   inkscape:pageopacity="0"
   inkscape:pagecheckerboard="0"
   showgrid="false"
   inkscape:snap-page="true"
   inkscape:zoom="2.2766005"
   inkscape:cx="231.26587"
   inkscape:cy="71.817607"
   inkscape:window-width="1920"
   inkscape:window-height="1001"
   inkscape:window-x="-9"
   inkscape:window-y="-9"
   inkscape:window-maximized="1"
   inkscape:current-layer="Layer_1"
   width="440px" />
<g
   id="g17"
   transform="matrix(1.0308519,0,0,1.0308519,163.19579,1.7305e-6)"
   style="stroke-width:0.970071">
		<polygon
   id="polygon19"
   fill="#ff6600"
   points="209.396,67.905 199.982,57.349 190.657,67.905 171.037,67.905 190.218,46.353 171.037,24.798 191.275,24.798 200.775,35.268 209.923,24.798 229.455,24.798 210.365,46.264 229.717,67.905 "
   style="stroke-width:0.941039" />
		<polygon
   id="polygon21"
   fill="#ff6600"
   points="133.346,67.905 133.346,0 171.037,0 171.037,15.135 149.313,15.135 149.313,24.798 171.037,24.798 171.037,39.361 149.313,39.361 149.313,52.728 171.037,52.728 171.037,67.905 "
   style="stroke-width:0.941039" />
	</g>

<text
   xml:space="preserve"
   id="text1996"
   style="font-style:normal;font-weight:normal;font-size:40px;line-height:1.25;font-family:sans-serif;letter-spacing:0px;word-spacing:0px;white-space:pre;shape-inside:url(#rect1998);fill:#000000;fill-opacity:1;stroke:none" /><g
   aria-label="Button"
   id="text6380"
   style="font-size:40px;line-height:1.25;letter-spacing:0px;word-spacing:0px;white-space:pre;shape-inside:url(#rect6382);fill:#0000ff;fill-opacity:1;stroke-width:0.415737"
   transform="matrix(2.4053693,0,0,2.4053693,-5.9946313,-212.16355)"><path
     d="M 2.4921875,88.20415 H 13.9375 q 3.398437,0 5.058594,0.292969 1.679687,0.273437 2.988281,1.171875 1.328125,0.898437 2.207031,2.402344 0.878906,1.484375 0.878906,3.339843 0,2.011719 -1.09375,3.691407 -1.074218,1.679692 -2.929687,2.519532 2.617187,0.76172 4.023437,2.59766 1.40625,1.83593 1.40625,4.3164 0,1.95313 -0.917968,3.8086 -0.898438,1.83593 -2.480469,2.94921 -1.5625,1.09375 -3.867188,1.34766 -1.445312,0.15625 -6.972656,0.19531 H 2.4921875 Z m 5.78125,4.765625 v 6.621094 H 12.0625 q 3.378906,0 4.199219,-0.09766 1.484375,-0.175782 2.324218,-1.015625 0.859375,-0.859375 0.859375,-2.246094 0,-1.328125 -0.742187,-2.148438 -0.722656,-0.839843 -2.167969,-1.015625 -0.859375,-0.09766 -4.941406,-0.09766 z m 0,11.386715 v 7.65625 H 13.625 q 3.125,0 3.964844,-0.17578 1.289062,-0.23437 2.089843,-1.13281 Q 20.5,109.78618 20.5,108.26274 q 0,-1.28906 -0.625,-2.1875 -0.625,-0.89843 -1.816406,-1.30859 -1.171875,-0.41016 -5.117188,-0.41016 z"
     style="font-weight:bold;font-family:Arial;-inkscape-font-specification:'Arial Bold';fill:#0000ff;fill-opacity:1;stroke-width:0.415737"
     id="path11286" /><path
     d="m 44.972656,116.83696 v -3.10547 q -1.132812,1.66016 -2.988281,2.61719 -1.835938,0.95703 -3.886719,0.95703 -2.089844,0 -3.75,-0.91797 -1.660156,-0.91796 -2.402344,-2.57812 -0.742187,-1.66016 -0.742187,-4.58984 V 96.094775 h 5.488281 v 9.531255 q 0,4.375 0.292969,5.37109 0.3125,0.97656 1.113281,1.5625 0.800781,0.56641 2.03125,0.56641 1.40625,0 2.519531,-0.76172 1.113282,-0.78125 1.523438,-1.91407 0.410156,-1.15234 0.410156,-5.60546 v -8.750005 h 5.488281 v 20.742185 z"
     style="font-weight:bold;font-family:Arial;-inkscape-font-specification:'Arial Bold';fill:#0000ff;fill-opacity:1;stroke-width:0.415737"
     id="path11288" /><path
     d="m 65.265625,96.094775 v 4.375005 h -3.75 v 8.35937 q 0,2.53906 0.09766,2.96875 0.117188,0.41016 0.488281,0.68359 0.390625,0.27344 0.9375,0.27344 0.761719,0 2.207032,-0.52734 l 0.46875,4.25781 q -1.914063,0.82031 -4.335938,0.82031 -1.484375,0 -2.675781,-0.48828 -1.191406,-0.50781 -1.757813,-1.28906 -0.546875,-0.80078 -0.761718,-2.14844 -0.175782,-0.95703 -0.175782,-3.86719 v -9.04296 h -2.519531 v -4.375005 h 2.519531 v -4.121094 l 5.507813,-3.203125 v 7.324219 z"
     style="font-weight:bold;font-family:Arial;-inkscape-font-specification:'Arial Bold';fill:#0000ff;fill-opacity:1;stroke-width:0.415737"
     id="path11290" /><path
     d="m 78.585937,96.094775 v 4.375005 h -3.75 v 8.35937 q 0,2.53906 0.09766,2.96875 0.117187,0.41016 0.488281,0.68359 0.390625,0.27344 0.9375,0.27344 0.761719,0 2.207031,-0.52734 l 0.46875,4.25781 q -1.914062,0.82031 -4.335937,0.82031 -1.484375,0 -2.675782,-0.48828 -1.191406,-0.50781 -1.757812,-1.28906 -0.546875,-0.80078 -0.761719,-2.14844 -0.175781,-0.95703 -0.175781,-3.86719 v -9.04296 h -2.519531 v -4.375005 h 2.519531 v -4.121094 l 5.507812,-3.203125 v 7.324219 z"
     style="font-weight:bold;font-family:Arial;-inkscape-font-specification:'Arial Bold';fill:#0000ff;fill-opacity:1;stroke-width:0.415737"
     id="path11292" /><path
     d="m 81.125,106.1729 q 0,-2.73437 1.347656,-5.29297 1.347656,-2.558592 3.808594,-3.906249 2.480469,-1.347656 5.527344,-1.347656 4.707031,0 7.714843,3.066406 3.007813,3.046879 3.007813,7.714849 0,4.70703 -3.046875,7.8125 -3.027344,3.08593 -7.636719,3.08593 -2.851562,0 -5.449219,-1.28906 -2.578125,-1.28906 -3.925781,-3.76953 -1.347656,-2.5 -1.347656,-6.07422 z m 5.625,0.29297 q 0,3.08594 1.464844,4.72656 1.464843,1.64063 3.613281,1.64063 2.148437,0 3.59375,-1.64063 1.464844,-1.64062 1.464844,-4.76562 0,-3.04688 -1.464844,-4.6875 -1.445313,-1.64063 -3.59375,-1.64063 -2.148438,0 -3.613281,1.64063 Q 86.75,103.37993 86.75,106.46587 Z"
     style="font-weight:bold;font-family:Arial;-inkscape-font-specification:'Arial Bold';fill:#0000ff;fill-opacity:1;stroke-width:0.415737"
     id="path11294" /><path
     d="m 125.69531,116.83696 h -5.48828 v -10.58593 q 0,-3.35938 -0.35156,-4.33594 -0.35156,-0.9961 -1.15234,-1.54297 -0.78125,-0.546876 -1.89454,-0.546876 -1.42578,0 -2.55859,0.781246 -1.13281,0.78125 -1.5625,2.07032 -0.41016,1.28906 -0.41016,4.76562 v 9.39453 h -5.48828 V 96.094775 h 5.09766 v 3.046875 q 2.71484,-3.515625 6.83594,-3.515625 1.8164,0 3.32031,0.664063 1.50391,0.644531 2.26562,1.660156 0.78125,1.015625 1.07422,2.304686 0.3125,1.28906 0.3125,3.69141 z"
     style="font-weight:bold;font-family:Arial;-inkscape-font-specification:'Arial Bold';fill:#0000ff;fill-opacity:1;stroke-width:0.415737"
     id="path11296" /></g></svg>
