<?xml version="1.0" encoding="UTF-8" standalone="no"?>
<!-- Generator: Adobe Illustrator 16.0.3, SVG Export Plug-In . SVG Version: 6.00 Build 0)  -->

<svg
   version="1.1"
   id="Layer_1"
   inkscape:version="1.1.1 (3bf5ae0d25, 2021-09-20)"
   sodipodi:docname="FileEx.svg"
   x="0px"
   y="0px"
   width="256"
   height="70"
   viewBox="0 0 256 70"
   enable-background="new 0 0 295.324 108.236"
   xml:space="preserve"
   xmlns:inkscape="http://www.inkscape.org/namespaces/inkscape"
   xmlns:sodipodi="http://sodipodi.sourceforge.net/DTD/sodipodi-0.dtd"
   xmlns="http://www.w3.org/2000/svg"
   xmlns:svg="http://www.w3.org/2000/svg"><defs
   id="defs22"><rect
   x="1.0946034"
   y="5.4730172"
   width="142.51736"
   height="63.924839"
   id="rect1998" />
	
	
</defs><sodipodi:namedview
   id="namedview20"
   pagecolor="#ffffff"
   bordercolor="#999999"
   borderopacity="1"
   inkscape:pageshadow="0"
   inkscape:pageopacity="0"
   inkscape:pagecheckerboard="0"
   showgrid="false"
   inkscape:snap-page="true"
   inkscape:zoom="4.5678644"
   inkscape:cx="148.09984"
   inkscape:cy="54.18287"
   inkscape:window-width="1920"
   inkscape:window-height="1001"
   inkscape:window-x="-9"
   inkscape:window-y="-9"
   inkscape:window-maximized="1"
   inkscape:current-layer="Layer_1" />
<g
   id="g17"
   transform="matrix(1.0308519,0,0,1.0308519,19.195794,1.7305e-6)"
   style="stroke-width:0.970071">
		<polygon
   id="polygon19"
   fill="#ff6600"
   points="190.657,67.905 171.037,67.905 190.218,46.353 171.037,24.798 191.275,24.798 200.775,35.268 209.923,24.798 229.455,24.798 210.365,46.264 229.717,67.905 209.396,67.905 199.982,57.349 "
   style="stroke-width:0.941039" />
		<polygon
   id="polygon21"
   fill="#ff6600"
   points="171.037,0 171.037,15.135 149.313,15.135 149.313,24.798 171.037,24.798 171.037,39.361 149.313,39.361 149.313,52.728 171.037,52.728 171.037,67.905 133.346,67.905 133.346,0 "
   style="stroke-width:0.941039" />
	</g>

<text
   xml:space="preserve"
   id="text1996"
   style="font-style:normal;font-weight:normal;font-size:40px;line-height:1.25;font-family:sans-serif;letter-spacing:0px;word-spacing:0px;white-space:pre;shape-inside:url(#rect1998);fill:#000000;fill-opacity:1;stroke:none" /><g
   aria-label="File"
   id="text2158"
   style="font-size:96px;line-height:1.25;letter-spacing:0px;word-spacing:0px;fill:#0000ff;stroke-width:0.997768"
   transform="matrix(1.0022371,0,0,1.0022371,-0.95046769,-0.24181172)"><path
     d="M 0.94834614,68.960022 V 0.24127197 H 48.057721 V 11.866272 H 14.823346 v 16.265625 h 28.6875 v 11.625 h -28.6875 v 29.203125 z"
     style="font-weight:bold;font-family:Arial;-inkscape-font-specification:'Arial Bold';stroke-width:0.997768"
     id="path4796" /><path
     d="M 59.401471,12.428772 V 0.24127197 H 72.573346 V 12.428772 Z m 0,56.53125 v -49.78125 h 13.171875 v 49.78125 z"
     style="font-weight:bold;font-family:Arial;-inkscape-font-specification:'Arial Bold';stroke-width:0.997768"
     id="path4798" /><path
     d="M 86.073346,68.960022 V 0.24127197 H 99.245221 V 68.960022 Z"
     style="font-weight:bold;font-family:Arial;-inkscape-font-specification:'Arial Bold';stroke-width:0.997768"
     id="path4800" /><path
     d="m 141.57335,53.116272 13.125,2.203125 q -2.53125,7.21875 -8.01563,11.015625 -5.4375,3.75 -13.64062,3.75 -12.98438,0 -19.21875,-8.484375 -4.92188,-6.796875 -4.92188,-17.15625 0,-12.375 6.46875,-19.359375 6.46875,-7.03125 16.35938,-7.03125 11.10937,0 17.53125,7.359375 6.42187,7.3125 6.14062,22.453125 h -33 q 0.14063,5.859375 3.1875,9.140625 3.04688,3.234375 7.59375,3.234375 3.09375,0 5.20313,-1.6875 2.10937,-1.6875 3.1875,-5.4375 z m 0.75,-13.3125 q -0.14063,-5.71875 -2.95313,-8.671875 -2.8125,-3 -6.84375,-3 -4.3125,0 -7.125,3.140625 -2.8125,3.140625 -2.76562,8.53125 z"
     style="font-weight:bold;font-family:Arial;-inkscape-font-specification:'Arial Bold';stroke-width:0.997768"
     id="path4802" /></g></svg>
